/* XPM */
static char *_947918b6d404ac6ee8fcf262d2827f9mIi9UGVmvXsGBTsZ[] = {
/* columns rows colors chars-per-pixel */
"32 32 128 2 ",
"   c gray10",
".  c #1A1E1A",
"X  c #182E1A",
"o  c #143117",
"O  c #173019",
"+  c #17331A",
"@  c #18341A",
"#  c #163F19",
"$  c #323632",
"%  c #373737",
"&  c #373A37",
"*  c #363C37",
"=  c #0E4B14",
"-  c #0E4E14",
";  c #144019",
":  c #15461A",
">  c #0D5114",
",  c #0D5E15",
"<  c #105717",
"1  c #115418",
"2  c #0B6314",
"3  c #106118",
"4  c #077113",
"5  c #067412",
"6  c #097714",
"7  c #077A12",
"8  c #097815",
"9  c #0B7D16",
"0  c #0C7E16",
"q  c #15781E",
"w  c #147E1F",
"e  c #205C23",
"r  c #205A24",
"t  c #205C24",
"y  c #255F2B",
"u  c #2F4B32",
"i  c #334735",
"p  c #314A33",
"a  c #304D33",
"s  c #1D6724",
"d  c #157F20",
"f  c #206227",
"g  c #2B702F",
"h  c #277E2E",
"j  c #2E7032",
"k  c #2A7832",
"l  c #4C4D46",
"z  c #505350",
"x  c #426B41",
"c  c #456B43",
"v  c #426E42",
"b  c #427141",
"n  c #447349",
"m  c #457549",
"M  c #47764C",
"N  c #477A4C",
"B  c #5D6757",
"V  c #5B6B55",
"C  c #66635F",
"Z  c #666760",
"A  c #6A6A69",
"S  c #6C6C6C",
"D  c #617262",
"F  c #78746E",
"G  c #7E7E7E",
"H  c #0B8117",
"J  c #058B13",
"K  c #068B14",
"L  c #068E15",
"P  c #088915",
"I  c #069315",
"U  c #079615",
"Y  c #079815",
"T  c #079C16",
"R  c #089816",
"E  c #0C911A",
"W  c #0B9419",
"Q  c #06A015",
"!  c #05A415",
"~  c #6F8367",
"^  c #748F77",
"/  c #7E817E",
"(  c #739076",
")  c #8F9483",
"_  c #8F9584",
"`  c #919385",
"'  c #909685",
"]  c #98938D",
"[  c #9F9991",
"{  c #A19A92",
"}  c #A29E95",
"|  c #9AA59B",
" . c #9BA69C",
".. c #A6A39D",
"X. c #ACA79E",
"o. c #A0A0A0",
"O. c #A9A7A4",
"+. c #A9A8A4",
"@. c #ACABA9",
"#. c #AEAFAE",
"$. c #B6B7B6",
"%. c #BFBAB3",
"&. c #C0BBB4",
"*. c gray79",
"=. c #C9CDC9",
"-. c #D6CEC5",
";. c #D8D4CD",
":. c #DBD9D6",
">. c #E2DCD5",
",. c #ECE5DC",
"<. c gray88",
"1. c #E4E4E4",
"2. c #EAEAEA",
"3. c gray93",
"4. c #F3EEE7",
"5. c #F3EFE8",
"6. c #F0F0EF",
"7. c #F4F2EF",
"8. c #F3F3F3",
"9. c #FAF6F0",
"0. c #F9F7F4",
"q. c #F9F8F6",
"w. c #FCFAF7",
"e. c #F9F9F9",
"r. c #FBFBFB",
"t. c #FDFDFB",
"y. c #FBFCFC",
"u. c #FDFDFD",
/* pixels */
"! ! ! ! ! ! ! ! ! ! ! ! ! ! ! ! ! ! ! ! ! ! ! ! ! ! ! ! ! ! ! ! ",
"! ! ! ! ! ! ! ! ! ! ! ! ! ! ! ! ! ! ! ! ! ! ! ! ! ! ! ! ! ! ! ! ",
"! ! ! ! ! ! ! ! ! ! ! ! ! ! ! ! ! ! ! ! ! ! ! ! ! ! ! ! ! ! ! ! ",
"! ! ! ! ! ! ! ! ! ! ! ! ! ! ! ! ! ! ! ! ! ! ! ! ! ! ! ! ! ! ! ! ",
"! ! ! ! ! ! ! ! ! ! ! ! ! ! ! ! ! ! ! ! ! ! ! ! ! ! ! ! ! ! ! ! ",
"! ! ! ! ! ! ! ! ! ! ! ! ! ! ! ! ! ! ! ! ! ! ! ! ! ! ! ! ! ! ! ! ",
"! ! Y 8 6 6 P ! ! ! ! ! ! ! ! ! ! ! ! ! ! ! ! Q 9 6 6 9 Q ! ! ! ",
"! Q d * & % y T ! ! ! ! ! ! ! ! ! ! ! ! ! ! Q W u & & p E Q ! ! ",
"! , D <.<.1. .: T ! ! ! ! ! ! ! ! ! ! ! ! ! H a =.<.<.=.p 9 ! ! ",
"< ^ *.u.u.u.<.| f J ! ! ! ! ! ! ! ! ! ! ! 5 m $.8.u.u.8.$.M 6 ! ",
"  #.u.e.e.e.u.3.G k 7 8 8 8 8 8 8 8 8 8 8 n o.u.u.e.e.u.u.S = ! ",
"  @.t.e.e.e.e.u.e./ $ & & & & & & & & & & $.u.e.e.e.e.e.0.A - ! ",
". } 5.e.e.e.e.u.u.2.<.<.<.<.<.<.<.<.<.<.<.8.u.e.e.e.e.q.,.Z > ! ",
"9 b ] 4.e.e.e.e.u.u.u.u.u.u.u.u.u.u.u.u.u.u.e.e.e.e.0.>.F h I ! ",
"! 5 x X.6.u.e.e.u.u.e.e.e.e.e.e.e.e.u.e.e.e.e.e.u.u.:.) e L ! ! ",
"! Q w z 1.u.e.e.e.u.e.e.e.e.e.e.e.e.e.e.e.e.e.u.u.u.$.i E Q ! ! ",
"! 2 D 1.e.e.e.e.e.e.e.e.e.e.e.e.e.e.e.e.e.e.e.e.e.e.8.=.a H ! ! ",
"1 ( *.u.e.e.e.e.e.7.4.4.4.4.4.4.4.4.4.4.4.9.y.e.e.e.u.8.$.N 6 ! ",
"  #.u.e.e.e.e.e.7.%.[ { { { { { { { { { { ;.0.e.e.e.e.u.u.S = ! ",
"  @.u.e.e.e.e.7.-.V o O O O @ @ O O O O @ ' >.q.e.e.e.e.q.A - ! ",
". } 5.e.u.u.9.-.l q Y Y Y Y Y Y Y Y Y Y Y r F ,.q.e.e.q.,.C - ! ",
"0 v ] 5.u.9.&.B q U ! ! ! ! ! ! ! ! ! ! ! P g F >.w.w.>.F j P ! ",
"! 4 c } @...~ , T ! ! ! ! ! ! ! ! ! ! ! ! ! K t ` +.O._ s L ! ! ",
"! ! H O O X 3 ! ! ! ! ! ! ! ! ! ! ! ! ! ! ! ! R # X X ; T ! ! ! ",
"! ! Q Y R R T ! ! ! ! ! ! ! ! ! ! ! ! ! ! ! ! Q R U U R ! ! ! ! ",
"! ! ! ! ! ! ! ! ! ! ! ! ! ! ! ! ! ! ! ! ! ! ! ! ! ! ! ! ! ! ! ! ",
"! ! ! ! ! ! ! ! ! ! ! ! ! ! ! ! ! ! ! ! ! ! ! ! ! ! ! ! ! ! ! ! ",
"! ! ! ! ! ! ! ! ! ! ! ! ! ! ! ! ! ! ! ! ! ! ! ! ! ! ! ! ! ! ! ! ",
"! ! ! ! ! ! ! ! ! ! ! ! ! ! ! ! ! ! ! ! ! ! ! ! ! ! ! ! ! ! ! ! ",
"! ! ! ! ! ! ! ! ! ! ! ! ! ! ! ! ! ! ! ! ! ! ! ! ! ! ! ! ! ! ! ! ",
"! ! ! ! ! ! ! ! ! ! ! ! ! ! ! ! ! ! ! ! ! ! ! ! ! ! ! ! ! ! ! ! ",
"! ! ! ! ! ! ! ! ! ! ! ! ! ! ! ! ! ! ! ! ! ! ! ! ! ! ! ! ! ! ! ! "
};
