/* XPM */
static char *_10ece02a35443f2b2d0e319928e0a7aTDnvrKEJZ7F4jVuJ[] = {
/* columns rows colors chars-per-pixel */
"32 32 243 2 ",
"   c black",
".  c #0B5101",
"X  c #0B4F01",
"o  c #0B5001",
"O  c #0B4E01",
"+  c #274505",
"@  c #314106",
"#  c #373E07",
"$  c #453808",
"%  c #1C4A03",
"&  c #244604",
"*  c #294405",
"=  c #383E07",
"-  c #622C0C",
";  c #0B4D01",
":  c #0B4E01",
">  c #0B4F01",
",  c #0B4E01",
"<  c #093E01",
"1  c #0A4801",
"2  c #0C5E01",
"3  c #0E6901",
"4  c #0D6101",
"5  c #0C5901",
"6  c #0A4A01",
"7  c #0A4B01",
"8  c #0A4C01",
"9  c #0A4B01",
"0  c #0A4701",
"q  c #0A4B01",
"w  c #0E6701",
"e  c #139200",
"r  c #117E02",
"t  c #0D6001",
"y  c #0A4D01",
"u  c #0B4E01",
"i  c #0B4F01",
"p  c #0B4E01",
"a  c #0B4E01",
"s  c #0C5801",
"d  c #0D5F01",
"f  c #0D6101",
"g  c #0A4701",
"h  c #0A4C01",
"j  c #0B4F01",
"k  c None",
"l  c #0A4B01",
"z  c #0A4801",
"x  c #0A4B01",
"c  c #0B4E01",
"v  c #0E6801",
"b  c #0D5E01",
"n  c #0B4D01",
"m  c #0A4901",
"M  c #0A4A01",
"N  c #0A4D01",
"B  c #139200",
"V  c #0E6901",
"C  c #0B4E01",
"Z  c #0A4A01",
"A  c #0C5601",
"S  c #0D6001",
"D  c #0B4E01",
"F  c #0A4B01",
"G  c #0D5F01",
"H  c #117E02",
"J  c #0B4E01",
"K  c #0A4C01",
"L  c #083A01",
"P  c #0A4501",
"I  c #0C5B01",
"U  c #0E6701",
"Y  c #0B4E01",
"T  c #0A4A01",
"R  c #0E6601",
"E  c #139100",
"W  c #0D5D01",
"Q  c #0E6801",
"!  c #0C5701",
"~  c #0A4901",
"^  c #094101",
"/  c #139300",
"(  c #0D6001",
")  c #0A4C01",
"_  c #0A4901",
"`  c #0D6001",
"'  c #0C5901",
"]  c #0B4E01",
"[  c #117E02",
"{  c #0D6101",
"}  c #0B4F01",
"|  c #0B5101",
" . c #0B5101",
".. c #0B5101",
"X. c #0B4E01",
"o. c #0B4F01",
"O. c #0B5101",
"+. c #0B5101",
"@. c #0B5101",
"#. c #0B4F01",
"$. c #0B5001",
"%. c #0B5101",
"&. c #0B5101",
"*. c #0B5101",
"=. c #0B5101",
"-. c #0B5001",
";. c #0B5001",
":. c #0B5101",
">. c #0B5101",
",. c #0B5001",
"<. c #0B5101",
"1. c #0B5101",
"2. c #0B5101",
"3. c #0B5101",
"4. c #0B5101",
"5. c #0B5101",
"6. c #0B5101",
"7. c #0B5101",
"8. c #0B5101",
"9. c #0B5101",
"0. c #0B5101",
"q. c #0B5101",
"w. c #0B5101",
"e. c #0B5101",
"r. c #0B5101",
"t. c #0B5101",
"y. c #0B5101",
"u. c #0A5101",
"i. c #124E02",
"p. c #1D4903",
"a. c #1D4A03",
"s. c #114E02",
"d. c #0A5101",
"f. c #095201",
"g. c #075300",
"h. c #045400",
"j. c #314106",
"k. c #493709",
"l. c #493709",
"z. c #314106",
"x. c #015500",
"c. c #005D00",
"v. c #6F270E",
"b. c #662A0C",
"n. c #642B0C",
"m. c #642B0C",
"M. c #6F260E",
"N. c #861D11",
"B. c #6A290D",
"V. c #652B0C",
"C. c #642B0C",
"Z. c #871C11",
"A. c #622C0C",
"S. c #622C0C",
"D. c #622C0C",
"F. c #622C0C",
"G. c #622C0C",
"H. c #0B4E01",
"J. c #0B4F01",
"K. c #0E6B01",
"L. c #0E6901",
"P. c #0E6501",
"I. c #0D6301",
"U. c #15A400",
"Y. c #149D01",
"T. c #139001",
"R. c #128902",
"E. c #138A02",
"W. c #138B02",
"Q. c #107701",
"!. c #15A201",
"~. c #18BA00",
"^. c #17B201",
"/. c #16A402",
"(. c #159E02",
"). c #15A002",
"_. c #139002",
"`. c #0F7101",
"'. c #0D6201",
"]. c #139202",
"[. c #16A701",
"{. c #159D02",
"}. c #159F02",
"|. c #149902",
" X c #138F02",
".X c #159C02",
"XX c #16A302",
"oX c #17B001",
"OX c #17B101",
"+X c #15A301",
"@X c #16A502",
"#X c #17B401",
"$X c #149E01",
"%X c #159902",
"&X c #15A102",
"*X c #16A602",
"=X c #139101",
"-X c #0D6101",
";X c #118001",
":X c #16AC00",
">X c #16AD00",
",X c #18B800",
"<X c #16A601",
"1X c #0D6401",
"2X c #138F00",
"3X c #17B300",
"4X c #0B5001",
"5X c #0C5701",
"6X c #107B01",
"7X c #149801",
"8X c #159A02",
"9X c #0B5101",
"0X c #0B4D01",
"qX c #16A102",
"wX c #138C02",
"eX c #0D5F01",
"rX c #117C02",
"tX c #139102",
"yX c #0D5E01",
"uX c #0B5501",
"iX c #0F7201",
"pX c #0D5D01",
"aX c #0B5401",
"sX c #16A202",
"dX c #138D02",
"fX c #117D02",
"gX c #0E6401",
"hX c #0C5501",
"jX c #0A4F01",
"kX c #0A5001",
"lX c #0A5101",
"zX c #0A5201",
"xX c #095001",
"cX c #095101",
"vX c #095201",
"bX c #214804",
"nX c #204804",
"mX c #4E3509",
"MX c #4D3509",
"NX c #642B0C",
"BX c #632B0C",
"VX c #622C0C",
"CX c white",
/* pixels */
"          . . X X ; : H.H.H.H.J.J.J.J.> , o o . . . .           ",
"      . . X X < 1 2 3 K.K.L.P.I.I.I.I.4 5 6 7 8 9 X X . .       ",
"      . . X o 0 q w e U.U.Y.T.R.R.E.W.r t y u i p o X . .       ",
"      . . 9 a s d Q.!.~.~.^./.(.(.).)._.`.'.'.f s g < X O . .   ",
"      . . h j f k ].).[.[./.).{.(.(.}.|. XE.W.k d l z X X . .   ",
"  . . o o x c '.W.).(..X.X}.XXXX}.{.{.{.(.).).].Q.v b n m . .   ",
"  . . o o M N '.E.).(..X.XXXoXOXXX.X{.{.(.(.(.).+XB V C Z . .   ",
". O X < g A S `. X(.(.{..XXXOXOXXX.X{.{.{.{..X@X#X$XL.D F . .   ",
". X X z l G H _.%X{.{.{.{.}.XXXX}.{.{.{.{.{.{.&X*X=XP.J K . .   ",
"X L P I U Q.].).(.{.{.{.{.{..X.X{.{.{.{.{.{.{.(.(.R.'.Y 7 o o . ",
"X P T R E !.).(.{.{.{.{.{.{.{.{.{.{.{.{.{.{.{.(.(.R.-Xy 6 o o . ",
"; W Q ;X:X~.[..X.X{.{.{.{.{.{.{.{.{.{.{.{.{.{.(.(. X`.S ! ~ ^ X ",
": 3 / >X~.,X<X.X.X{.{.{.{.{.{.{.{.{.{.{.{.{.{.{.{.|._.H ( ) _ o ",
"H.1X2X:X3XoXXX.X{.{.{.{.{.{.{.{.{.{.{.{.{.{.{.{.{.(.)._.`.` ' ] ",
"4X5X1X6X7X/.).{.{.{.{.{.{.{.{.{.{.{.{.{.{.{.{.{.{.(.(.8X_.[ { } ",
"9XJ.0X-XE.}.(.{.{.{.{.{.{.{.(.(.(.(.(.(.{.{.{.{.{.{.{.}.qXwXI.J.",
"9XJ.H.'.W.).(.{.{.{.{.{.{.{.(.}.}.}.}.(.{.{.{.{.{.{.{.}.qXwXI.J.",
"9X4X4XeXrXtX8X}.(.(.{.{.{.|. XE.E.E.E. X%X}.(.(.(.(.}.8XtXrXyXJ.",
"9X9X9XuXyXiXtX).).(.{.(.(. X`.'.'.'.'.iX_.).).}.}.).).tXiXpXaX4X",
"|  ...4XH.yXrXwXW. X%X).).W.'.0XH.H.H.yXrXwXwXW.W.wXwXrXpXX.o.| ",
"O.+.@.4X4XuXeXI.'.iX_.qXsXwXI.H.J.4XJ.uXeX1X1XI.I.1X1XyXaX#.$.O.",
". %.&.*.=.9X4XH.H.yXrXdXdXfXeX4X4X9X9X9X4XJ.J.J.J.J.J.-.;.&.%.. ",
". :.%.>.*.9X4X4XJ.uXeXgXgXeXhX9X9X9X9X9X4X4X4X4X4X4X4X;.,.%.:.. ",
". . . <.1.2.3. .4.9X4XjXkXkXlXzXzXzXzXlX9X4. .5.5.6.7.1.<.. . . ",
". . . 8.9.0.q.w.e.9X4XkXxXcXvXvXvXvXvXvX9Xe.w.r.t.y.y.9.8.. . . ",
"  . . . . . . <.1.2.u.i.p.bXnXnXnXnXbXa.s.d.f.. . . . . . . .   ",
"  . . . . . . 8.9.g.h.j.k.mXMXMXMXMXmXl.z.x.c.. . . . . . . .   ",
"          . . . . + @ v.b.n.m.NXNXm.n.b.M.# $ . .               ",
"          . . . . % & N.B.V.C.BXBXC.V.B.Z.* = . .               ",
"                  - - - - A.S.VXVXS.A.- - - -                   ",
"                  - - - - D.F.VXVXF.D.- - - -                   ",
"                      - - G.F.VXVXF.G.- -                       "
};
