/* XPM */
static char *b3b81208760e49a6b86155c2ba152a94[] = {
/* columns rows colors chars-per-pixel */
"32 32 66 1 ",
"  c #4C3202",
". c #553C07",
"X c #533E08",
"o c #632704",
"O c #642704",
"+ c #622804",
"@ c #602E05",
"# c #034D00",
"$ c #1B4600",
"% c #164C01",
"& c #035000",
"* c #035401",
"= c #045600",
"- c #055F00",
"; c #045F04",
": c #085B03",
"> c #0A5E04",
", c #3D4705",
"< c #3C5C0C",
"1 c #056200",
"2 c #066500",
"3 c #036205",
"4 c #046105",
"5 c #036505",
"6 c #046505",
"7 c #066A03",
"8 c #066C03",
"9 c #066D04",
"0 c #067200",
"q c #067204",
"w c #067504",
"e c #077800",
"r c #077C00",
"t c #087D00",
"y c #047309",
"u c #047409",
"i c #17790D",
"p c #2F6E0E",
"a c #4C4709",
"s c #4B4809",
"d c #088101",
"f c #0A8A00",
"g c #0B8C00",
"h c #05820C",
"j c #05870C",
"k c #0B9100",
"l c #0B9401",
"z c #0D9A00",
"x c #0D9F00",
"c c #058F10",
"v c #1C8611",
"b c #1A8811",
"n c #059010",
"m c #059411",
"M c #049812",
"N c #0A9F15",
"B c #179013",
"V c #0DA000",
"C c #0DA400",
"Z c #0EA900",
"A c #0EAE00",
"S c #10B200",
"D c #10B400",
"F c #11BB00",
"G c #06A114",
"H c #05A415",
/* pixels */
"HHHHHHHHHn4########6nHHHHHHHHHHH",
"HHHHHHHGmjw777211119jnnmGHHHHHHH",
"HHHHHHHmyqlCCxkfffgd934umHHHHHHH",
"HHHHHGmh7eCFFDCxxVVk0118hmGHHHHH",
"HHHHHmu8dkVZZCVxxxVzkfgd7ymHHHHH",
"HHHHHc41gVxxxVCCVxxxxVVke0jmGHHH",
"HHHHHn31fVxxxCSSCxxxxxxVCl0ymHHH",
"HHHGmh90kxxxxCSSCxxxxxxCDx74cHHH",
"HHHmy7dkzxxxxVCCVxxxxxxVZk24cHHH",
"HGmj0ekVxxxxxxxxxxxxxxxxxf14nHHH",
"Hmy0kCVxxxxxxxxxxxxxxxxxxf13nHHH",
"njqdAFZxxxxxxxxxxxxxxxxxxk09hmGH",
"4wlAFFZxxxxxxxxxxxxxxxxxxzkd8ymH",
"#2kADSCxxxxxxxxxxxxxxxxxxxVk09jn",
"#=2rzCVxxxxxxxxxxxxxxxxxxxxzkd96",
"&##1fxxxxxxxxxxxxxxxxxxxxxxVVg1#",
"&##1gVxxxxxxxxxVVVVxxxxxxxxVVg1#",
"&##-tkzVxxxxxzkffffkzVxxxxVzkt-#",
"&&&*-0kVVxxxxk011110kVVVVVVk0-&#",
"64*##-tggkzVVg1####-tggggggt-&;6",
"nh;##*-110kVCg1####*-221122-&;hn",
"Hmu-*&###-tggt-##&&&#######&-umH",
"HGmh-&###*-22-=&&&&&#######-hmGH",
"HHHmu464*&####&&&&&&&*46666umHHH",
"HHHGmnnh-&###&&&&&&&&-hnnccmGHHH",
"HHHHHHHmu45>%$$$$$$%:uMHHHHHHHHH",
"HHHHHHHGmnni,      ,iMGHHHHHHHHH",
"HHHHHHHHHHHB<.@OO@.<BHHHHHHHHHHH",
"HHHHHHHHHHHNBpXooXpBNHHHHHHHHHHH",
"HHHHHHHHHHHHHbs++sbHHHHHHHHHHHHH",
"HHHHHHHHHHHHHba++abHHHHHHHHHHHHH",
"HHHHHHHHHHHHHva++avHHHHHHHHHHHHH"
};
