/* XPM */
static char *_f9477d1bc484737bea455decbae44f7[] = {
/* columns rows colors chars-per-pixel */
"32 32 195 2 ",
"   c #000401",
".  c #150A07",
"X  c #061708",
"o  c #161706",
"O  c #171716",
"+  c #230600",
"@  c #380800",
"#  c #321805",
"$  c #052709",
"%  c #11240A",
"&  c #142408",
"*  c #06300A",
"=  c #02380B",
"-  c #0F3D0B",
";  c #123D0D",
":  c #092E16",
">  c #162F1F",
",  c #053A17",
"<  c #133B1F",
"1  c #262408",
"2  c #2E2A09",
"3  c #342508",
"4  c #322C0A",
"5  c #25350D",
"6  c #2D3F11",
"7  c #183420",
"8  c #272727",
"9  c #2D3E34",
"0  c #461C05",
"q  c #531703",
"w  c #5B1602",
"e  c #5E1803",
"r  c #631A03",
"t  c #6A1C04",
"y  c #721F05",
"u  c #562106",
"i  c #57310D",
"p  c #4E2316",
"a  c #5C381F",
"s  c #662306",
"d  c #7A2205",
"f  c #742A08",
"g  c #632612",
"h  c #732815",
"j  c #68311F",
"k  c #683E2D",
"l  c #06440D",
"z  c #02560F",
"x  c #074B16",
"c  c #104514",
"v  c #17481A",
"b  c #045314",
"n  c #035E11",
"m  c #384212",
"M  c #036114",
"N  c #036915",
"B  c #0A6C16",
"V  c #047415",
"C  c #05721B",
"Z  c #077919",
"A  c #047A19",
"S  c #194824",
"D  c #155122",
"F  c #254829",
"G  c #2D4B38",
"H  c #37473D",
"J  c #395034",
"K  c #37563E",
"L  c #3B543C",
"P  c #156C2C",
"I  c #147728",
"U  c #2A6539",
"Y  c #30613E",
"T  c #41433E",
"R  c #7A4737",
"E  c #6C354A",
"W  c #385A41",
"Q  c #4D4F4F",
"!  c #564242",
"~  c #495A4C",
"^  c #4B5A50",
"/  c #6F4D52",
"(  c #4F6054",
")  c #54675A",
"_  c #6C615E",
"`  c #5E6B62",
"'  c #646262",
"]  c #706562",
"[  c #6E7070",
"{  c #767676",
"}  c #767978",
"|  c #852406",
" . c #892808",
".. c #922906",
"X. c #992C06",
"o. c #983210",
"O. c #A12C06",
"+. c #A22E08",
"@. c #AC3309",
"#. c #B03206",
"$. c #B33408",
"%. c #B93609",
"&. c #BF380A",
"*. c #A43C18",
"=. c #C13708",
"-. c #C53A0A",
";. c #CC3D0B",
":. c #D53E0B",
">. c #D93F0A",
",. c #814B39",
"<. c #924E38",
"1. c #B64B28",
"2. c #AF433C",
"3. c #D7400C",
"4. c #D9400C",
"5. c #CD4619",
"6. c #D94513",
"7. c #D84919",
"8. c #CD462C",
"9. c #DC582B",
"0. c #C15B39",
"q. c #DB5C31",
"w. c #8A5F50",
"e. c #B86950",
"r. c #955067",
"t. c #A04F6A",
"y. c #A2516D",
"u. c #B4556B",
"i. c #C4555F",
"p. c #DE6740",
"a. c #DF6943",
"s. c #C2765D",
"d. c #E27C5B",
"f. c #E36575",
"g. c #048414",
"h. c #048C14",
"j. c #048B19",
"k. c #09891C",
"l. c #049415",
"z. c #059915",
"x. c #049518",
"c. c #059B19",
"v. c #05A415",
"b. c #06A119",
"n. c #9C857B",
"m. c #D68B74",
"M. c #E48566",
"N. c #E58E72",
"B. c #C86588",
"V. c #D16A8E",
"C. c #D86D92",
"Z. c #EB759B",
"A. c #FB7A9D",
"S. c #F57CA4",
"D. c #848684",
"F. c #829089",
"G. c #8B9891",
"H. c #959696",
"J. c gray60",
"K. c #9FA0A0",
"L. c #A4A4A3",
"P. c #A8AAA8",
"I. c #B6A8A2",
"U. c #B2B3B2",
"Y. c #B7BDB9",
"T. c #BCBDBD",
"R. c #E89B82",
"E. c #DCA491",
"W. c #E9A38C",
"Q. c #E9AB96",
"!. c #F0A991",
"~. c #FF81AD",
"^. c #FF83B0",
"/. c #DCBDB4",
"(. c #EDBBAB",
"). c #F2C7B9",
"_. c #F5CABB",
"`. c #CDC6C3",
"'. c #CDCDCC",
"]. c #D7D1CF",
"[. c #D4D2D1",
"{. c #D9D3D2",
"}. c #D9DADA",
"|. c #F2CCC0",
" X c #F5D8CF",
".X c #F5D9D0",
"XX c #F6E1DA",
"oX c #F8E3DC",
"OX c #E6E5E5",
"+X c gray93",
"@X c #F9EBE6",
"#X c #EFF0EF",
"$X c #F2F2F2",
"%X c #FAF5F4",
"&X c #FEFEFE",
/* pixels */
"v.v.v.v.v.v.v.v.v.v.v.v.v.v.v.g.l.v.v.v.v.v.j.v k.v.v.v.v.v.v.v.",
"v.v.v.v.v.v.v.v.v.v.v.v.v.v.Z ! J l.v.v.v.x.m  .c v.v.v.v.v.v.v.",
"v.v.v.v.v.v.v.v.v.v.v.v.v.Z / S.V.L x.v.c.6 $.#.- v.v.v.v.v.v.v.",
"v.v.v.v.v.v.v.v.v.v.v.v.v.M y.^.~.B.v v.V 0 4.@.c v.v.v.v.v.v.v.",
"v.v.v.v.v.v.v.v.v.v.v.v.v.M y.~.~.Z.a Z * d :.#.% j.v.v.v.v.v.v.",
"v.v.v.v.v.v.v.v.v.v.v.v.v.N r.~.~.A.8.i o q g 1.g b v.v.v.v.v.v.",
"v.v.v.v.v.v.v.v.v.v.v.v.v.c.F C.~.~.f.@.%.$.s.(.I.> h.v.v.v.v.v.",
"v.v.v.v.v.v.v.v.v.v.v.v.v.v.; i.S.S.E y 4.4.6.9.R.n.P v.v.v.v.v.",
"v.v.v.v.v.v.v.v.v.v.v.v.v.v.- | u.Z.. d 4.3.:.=.-.E.G g.h.h.z.v.",
"v.v.v.v.v.v.v.v.v.v.v.v.v.v.= @ 2.t.h -.4.4.;.@ w Q.} ( ~ X z v.",
"v.v.v.v.v.v.v.v.v.v.v.v.v.v.N # +.| ;.4.3.3.:. .o.(.&X&XOX8 l v.",
"v.v.v.v.v.v.v.v.v.v.v.v.v.v.c.1 %.4.4.3.3.3.:.9._.@X&X&X&XJ.b v.",
"v.v.v.v.v.v.v.v.v.v.v.v.v.v.x.o ..4.3.3.:.:.p.m.`.&X&X&X%XG.C v.",
"v.k.C v.v.v.v.v.v.v.v.v.v.v.c.% | :.3.6.q.!.XX[.{ +X$XU.` I v.v.",
"z.Y F.I v.v.v.v.v.v.v.v.v.v.b.b + #.>.N.XX&X&X%XP.' H 7 n v.v.v.",
"l.K OX) h.v.v.v.v.v.v.v.v.v.c.% | :.:.W.&X&X&X&X&X}.G h.v.v.v.v.",
"l.K +XY.S - ; ; B x.x.x.v.v.j.3 ;.4.:.W.&X&X&X&X&XL.: x.v.v.v.v.",
"l.K $X'.j #.$.$.f 3 3 4 B Z = q :.3.:.N.%X&X&X&X&X}.Q b v.v.v.v.",
"l.W T.,.=.4.4.4.:.;.;.-.d s t &.4.3.3.7.|.&X&X&X&X&XT.x v.v.v.v.",
"v.P k =.4.3.3.3.3.4.4.4.4.4.4.4.3.3.3.3.d.@X&X&X&X&X'.7 Z v.v.v.",
"c.$ w 4.3.3.3.3.4.;.$.3.3.3.3.3.3.3.3.3.3.d.oX&X&X&X&XD.N v.v.v.",
"x.& ..4.3.3.3.3.4.$.r :.3.3.3.3.3.3.3.3.3.:.Q.&X&X&X&XH.N v.v.v.",
"x.2 ;.4.3.3.3.3.4.$.e :.3.3.3.3.3.3.3.3.3.:.Q.&X&X&X&XF.V v.v.v.",
"x.2 ;.4.3.3.3.3.4.$.e :.3.3.3.3.4.3.3.3.:.9.).&X&X&XJ.D c.v.v.v.",
"c.2 -.4.3.3.3.3.4.@.r :.3.3.4.%.X.4.3.3.:.M.&X&X&XOX9 V v.v.v.v.",
"v.B f 4.3.3.4.;.@.d $.3.3.3.4.+.r 4.3.:.a. X&X&X#X[ , c.v.v.v.v.",
"v.g.u 4.4.:.@.... w +.3.3.4.:.| ..4.:.a..X&X&X#X[ * j.v.v.v.v.v.",
"c.l r :.@.q + @     . u s &.$.e ;.4.:.<.' ] ' Q : j.v.v.v.v.v.v.",
"x.1 $.r & b . R O x g.g.V 5 # O.3.4.@.+ @ *.p $ j.v.v.v.v.v.v.v.",
"x.2 ;.d X C F {.P.7 l.v.v.c.c e.6.;.e t :.0.T V v.v.v.v.v.v.v.v.",
"x.2 5.W.D.x x ^ ) < l.v.v.v.D `.).w.. h !./.P.U z.v.v.v.v.v.v.v.",
"c.5 e.].K.b x.g.g.h.v.v.v.v.v U.}.T.} _ [.}.'.G l.v.v.v.v.v.v.v."
};
