/* XPM */
static char *_2d39d44623240aba250d3855e2130a6sz7d3zipGcP2e9iN[] = {
/* columns rows colors chars-per-pixel */
"32 32 196 2 ",
"   c #000401",
".  c #150A07",
"X  c #061708",
"o  c #161706",
"O  c #171716",
"+  c #230600",
"@  c #380800",
"#  c #321805",
"$  c #052709",
"%  c #11240A",
"&  c #142408",
"*  c #06300A",
"=  c #02380B",
"-  c #0F3D0B",
";  c #123D0D",
":  c #092E16",
">  c #162F1F",
",  c #053A17",
"<  c #133B1F",
"1  c #262408",
"2  c #2E2A09",
"3  c #342508",
"4  c #322C0A",
"5  c #25350D",
"6  c #2D3F11",
"7  c #183420",
"8  c #272727",
"9  c #2D3E34",
"0  c #461C05",
"q  c #531703",
"w  c #5B1602",
"e  c #5E1803",
"r  c #631A03",
"t  c #6A1C04",
"y  c #721F05",
"u  c #562106",
"i  c #57310D",
"p  c #4E2316",
"a  c #5C381F",
"s  c #662306",
"d  c #7A2205",
"f  c #742A08",
"g  c #632612",
"h  c #732815",
"j  c #68311F",
"k  c #683E2D",
"l  c #06440D",
"z  c #02560F",
"x  c #074B16",
"c  c #104514",
"v  c #17481A",
"b  c #045314",
"n  c #035E11",
"m  c #384212",
"M  c #036114",
"N  c #036915",
"B  c #0A6C16",
"V  c #047415",
"C  c #05721B",
"Z  c #077919",
"A  c #047A19",
"S  c #194824",
"D  c #155122",
"F  c #254829",
"G  c #2D4B38",
"H  c #37473D",
"J  c #395034",
"K  c #37563E",
"L  c #3B543C",
"P  c #156C2C",
"I  c #147728",
"U  c #2A6539",
"Y  c #30613E",
"T  c #41433E",
"R  c #7A4737",
"E  c #6C354A",
"W  c #385A41",
"Q  c #4D4F4F",
"!  c #564242",
"~  c #495A4C",
"^  c #4B5A50",
"/  c #6F4D52",
"(  c #4F6054",
")  c #54675A",
"_  c #6C615E",
"`  c #5E6B62",
"'  c #646262",
"]  c #706562",
"[  c #6E7070",
"{  c #767676",
"}  c #767978",
"|  c #852406",
" . c #892808",
".. c #922906",
"X. c #992C06",
"o. c #983210",
"O. c #A12C06",
"+. c #A22E08",
"@. c #A93107",
"#. c #AC3309",
"$. c #B03206",
"%. c #B33408",
"&. c #B93609",
"*. c #BF380A",
"=. c #A43C18",
"-. c #C13708",
";. c #C53A0A",
":. c #CC3D0B",
">. c #D53E0B",
",. c #D93F0A",
"<. c #814B39",
"1. c #924E38",
"2. c #B64B28",
"3. c #AF433C",
"4. c #D7400C",
"5. c #D9400C",
"6. c #CD4619",
"7. c #D94513",
"8. c #D84919",
"9. c #CD462C",
"0. c #DC582B",
"q. c #C15B39",
"w. c #DB5C31",
"e. c #8A5F50",
"r. c #B86950",
"t. c #955067",
"y. c #A04F6A",
"u. c #A2516D",
"i. c #B4556B",
"p. c #C4555F",
"a. c #DE6740",
"s. c #DF6943",
"d. c #C2765D",
"f. c #E27C5B",
"g. c #E36575",
"h. c #048414",
"j. c #048C14",
"k. c #048B19",
"l. c #09891C",
"z. c #049415",
"x. c #059915",
"c. c #049518",
"v. c #059B19",
"b. c #05A415",
"n. c #06A119",
"m. c #9C857B",
"M. c #D68B74",
"N. c #E48566",
"B. c #E58E72",
"V. c #C86588",
"C. c #D16A8E",
"Z. c #D86D92",
"A. c #EB759B",
"S. c #FB7A9D",
"D. c #F57CA4",
"F. c #848684",
"G. c #829089",
"H. c #8B9891",
"J. c #959696",
"K. c gray60",
"L. c #9FA0A0",
"P. c #A4A4A3",
"I. c #A8AAA8",
"U. c #B6A8A2",
"Y. c #B2B3B2",
"T. c #B7BDB9",
"R. c #BCBDBD",
"E. c #E89B82",
"W. c #DCA491",
"Q. c #E9A38C",
"!. c #E9AB96",
"~. c #F0A991",
"^. c #FF81AD",
"/. c #FF83B0",
"(. c #DCBDB4",
"). c #EDBBAB",
"_. c #F2C7B9",
"`. c #F5CABB",
"'. c #CDC6C3",
"]. c #CDCDCC",
"[. c #D7D1CF",
"{. c #D4D2D1",
"}. c #D9D3D2",
"|. c #D9DADA",
" X c #F2CCC0",
".X c #F5D8CF",
"XX c #F5D9D0",
"oX c #F6E1DA",
"OX c #F8E3DC",
"+X c #E6E5E5",
"@X c gray93",
"#X c #F9EBE6",
"$X c #EFF0EF",
"%X c #F2F2F2",
"&X c #FAF5F4",
"*X c #FEFEFE",
/* pixels */
"b.b.b.b.b.b.b.l.v k.b.b.b.b.b.z.h.b.b.b.b.b.b.b.b.b.b.b.b.b.b.b.",
"b.b.b.b.b.b.b.c  .m c.b.b.b.z.J ! A b.b.b.b.b.b.b.b.b.b.b.b.b.b.",
"b.b.b.b.b.b.b.- $.%.6 v.b.c.L C.D./ A b.b.b.b.b.b.b.b.b.b.b.b.b.",
"b.b.b.b.b.b.b.c #.5.0 V b.v V.^./.u.M b.b.b.b.b.b.b.b.b.b.b.b.b.",
"b.b.b.b.b.b.k.% $.>.d * A a A.^.^.u.M b.b.b.b.b.b.b.b.b.b.b.b.b.",
"b.b.b.b.b.b.b g 2.g q o i 9.S.^.^.t.N b.b.b.b.b.b.b.b.b.b.b.b.b.",
"b.b.b.b.b.j.> U.).d.%.%.#.g.^.^.Z.F v.b.b.b.b.b.b.b.b.b.b.b.b.b.",
"b.b.b.b.b.P m.E.0.7.5.5.y E D.D.p.; b.b.b.b.b.b.b.b.b.b.b.b.b.b.",
"b.x.j.j.h.G W.;.-.>.4.5.d . A.i.| - b.b.b.b.b.b.b.b.b.b.b.b.b.b.",
"b.z X ~ ( } !.w @ :.5.5.;.h y.3.@ = b.b.b.b.b.b.b.b.b.b.b.b.b.b.",
"b.l 8 +X*X*X).o. .>.4.4.5.:.| +.# N b.b.b.b.b.b.b.b.b.b.b.b.b.b.",
"b.b K.*X*X*X#X`.0.>.4.4.4.5.5.&.1 v.b.b.b.b.b.b.b.b.b.b.b.b.b.b.",
"b.C H.&X*X*X*X'.M.a.>.>.4.4.5...o c.b.b.b.b.b.b.b.b.b.b.b.b.b.b.",
"b.b.I ` Y.%X@X{ {.oX!.w.7.5.>.| % v.b.b.b.b.b.b.b.b.b.b.b.C l.b.",
"b.b.b.n 7 H ' I.&X*X*XoXB.,.$.+ b n.b.b.b.b.b.b.b.b.b.b.I G.Y x.",
"b.b.b.b.j.G |.*X*X*X*X*XQ.>.>.| % v.b.b.b.b.b.b.b.b.b.j.) +XK z.",
"b.b.b.b.c.: P.*X*X*X*X*XQ.>.5.:.3 k.b.b.c.c.c.B ; ; - S T.@XK z.",
"b.b.b.b.b Q |.*X*X*X*X&XB.>.4.>.q = A B 4 3 3 f %.%.$.j ].%XK z.",
"b.b.b.b.x R.*X*X*X*X*X X8.4.4.5.*.t s d ;.:.:.>.5.5.5.-.<.R.W z.",
"b.b.b.A 7 ].*X*X*X*X#Xf.4.4.4.4.5.5.5.5.5.5.5.4.4.4.4.5.-.k P b.",
"b.b.b.N F.*X*X*X*XOXf.4.4.4.4.4.4.4.4.4.4.%.:.5.4.4.4.4.5.w $ v.",
"b.b.b.N J.*X*X*X*X!.>.4.4.4.4.4.4.4.4.4.>.r %.5.4.4.4.4.5...& c.",
"b.b.b.V G.*X*X*X*X!.>.4.4.4.4.4.4.4.4.4.>.e %.5.4.4.4.4.5.:.2 c.",
"b.b.b.v.D K.*X*X*X_.0.>.4.4.4.5.4.4.4.4.>.e %.5.4.4.4.4.5.:.2 c.",
"b.b.b.b.V 9 +X*X*X*XN.>.4.4.5.X.&.5.4.4.>.r #.5.5.4.4.4.5.;.2 v.",
"b.b.b.b.v., [ $X*X*X.Xs.>.4.5.r +.5.4.4.4.%.d #.:.5.4.4.5.f B b.",
"b.b.b.b.b.k.* [ $X*X*XXXs.>.5...| >.5.4.4.+.w . ..@.>.5.5.u h.b.",
"b.b.b.b.b.b.k.: Q ' ] ' 1.>.5.:.e %.*.s u .     @ + q #.>.r l v.",
"b.b.b.b.b.b.b.k.$ p =.@ + @.5.4.O.# 5 V h.h.x O R . b & r %.1 c.",
"b.b.b.b.b.b.b.b.V T q.>.t e :.7.r.c v.b.b.z.7 I.}.F C X d :.2 c.",
"b.b.b.b.b.b.b.x.U I.(.~.h . e._.'.D b.b.b.z.< ) ^ x x F.Q.6.2 c.",
"b.b.b.b.b.b.b.z.G ].|.{._ } R.|.Y.v b.b.b.b.j.h.h.c.b L.[.r.5 v."
};
