/* XPM */
static char *_52841baacf6417081797030db44bb4cgg4yO1JuwPPSNaCP[] = {
/* columns rows colors chars-per-pixel */
"32 32 212 2 ",
"   c #131112",
".  c #1A191B",
"X  c #211F20",
"o  c #242325",
"O  c #2B2A2D",
"+  c #27262A",
"@  c #2E2E31",
"#  c #383739",
"$  c #3C2D2D",
"%  c #7D1C15",
"&  c #751D17",
"*  c #662919",
"=  c #7B211B",
"-  c #6E301F",
";  c #49393A",
":  c #653D2B",
">  c #6A3424",
",  c #703121",
"<  c #783828",
"1  c #7C3F30",
"2  c #7F2922",
"3  c #674531",
"4  c #754735",
"5  c #7A4D32",
"6  c #795439",
"7  c #4D4B4D",
"8  c #5A5A5B",
"9  c #555456",
"0  c #7B5D4C",
"q  c #745B4A",
"w  c #6A5A5A",
"e  c #7C6051",
"r  c #605F60",
"t  c #656362",
"y  c #756F6B",
"u  c #75716C",
"i  c #831B17",
"p  c #8D1F1B",
"a  c #85251C",
"s  c #8D201C",
"d  c #94221E",
"f  c #98231F",
"g  c #8D361B",
"h  c #89371C",
"j  c #9A3A1F",
"k  c #8F2E29",
"l  c #882A23",
"z  c #962421",
"x  c #9A2623",
"c  c #992B24",
"v  c #9B2D2A",
"b  c #902E29",
"n  c #8A392B",
"m  c #853226",
"M  c #9A3B21",
"N  c #9A312A",
"B  c #933624",
"V  c #A02A26",
"C  c #A22D2C",
"Z  c #A13326",
"A  c #955829",
"S  c #AD4A2C",
"D  c #A64825",
"F  c #A95829",
"G  c #A65628",
"H  c #966D2C",
"J  c #99743C",
"K  c #956D30",
"L  c #A96734",
"P  c #AC6934",
"I  c #BA6835",
"U  c #AA7D39",
"Y  c #A77934",
"T  c #BC7A38",
"R  c #B77436",
"E  c #A8692F",
"W  c #C06E3A",
"Q  c #855D49",
"!  c #885E4B",
"~  c #8B7247",
"^  c #917744",
"/  c #95794A",
"(  c #896E53",
")  c #886C65",
"_  c #987F65",
"`  c #857A76",
"'  c #937C78",
"]  c #B78639",
"[  c #C2893E",
"{  c #9C8158",
"}  c #BE8B41",
"|  c #B28645",
" . c #AD8D55",
".. c #BC9451",
"X. c #BB935C",
"o. c #BD9A5D",
"O. c #B7965B",
"+. c #AB8952",
"@. c #988269",
"#. c #8C857C",
"$. c #988879",
"%. c #9E927F",
"&. c #B39469",
"*. c #A88973",
"=. c #A6957B",
"-. c #B39E7B",
";. c #B69F76",
":. c #A88B63",
">. c #BBA27A",
",. c #C18E45",
"<. c #D18E46",
"1. c #CC9543",
"2. c #CE9945",
"3. c #C5944A",
"4. c #CC9C4B",
"5. c #C69547",
"6. c #D19745",
"7. c #D29C4A",
"8. c #D29347",
"9. c #C59956",
"0. c #C99B52",
"q. c #C39B5A",
"w. c #C49453",
"e. c #DDA54E",
"r. c #CCA25B",
"t. c #DCA750",
"y. c #DEAE5C",
"u. c #D7A656",
"i. c #DFB15F",
"p. c #E1A84D",
"a. c #E4AC52",
"s. c #E4AA51",
"d. c #E9B155",
"f. c #E6B158",
"g. c #C39E62",
"h. c #C9A365",
"j. c #C9A66D",
"k. c #CEAA6A",
"l. c #C4A36C",
"z. c #D1AC6B",
"x. c #D9AF69",
"c. c #DCB065",
"v. c #C3A675",
"b. c #C5AA7C",
"n. c #C8A975",
"m. c #948E84",
"M. c #978B8C",
"N. c #979189",
"B. c #9C938A",
"V. c #9E9192",
"C. c #8E8881",
"Z. c #B79786",
"A. c #A89C99",
"S. c #A69796",
"D. c #A69984",
"F. c #BBA481",
"G. c #BFA882",
"H. c #B9A584",
"J. c #AEA09C",
"K. c #B9A797",
"L. c #B4A5A3",
"P. c #BBADAB",
"I. c #B9ABA5",
"U. c #BBB2AA",
"Y. c #BEB3A5",
"T. c #B5B4B5",
"R. c #AFB1B9",
"E. c #C19E89",
"W. c #C2AC89",
"Q. c #C6A68A",
"!. c #C2B297",
"~. c #CAAD8F",
"^. c #C3AEAA",
"/. c #C1B3AA",
"(. c #C3B4B1",
"). c #C5B7B8",
"_. c #CBBBBB",
"`. c #C8B9B5",
"'. c #D0BFBF",
"]. c #9EB0D7",
"[. c #B5B9C3",
"{. c #B6BAC6",
"}. c #A8B6D6",
"|. c #B3B9CB",
" X c #9DB5E5",
".X c #A6BAE2",
"XX c #CDBFC0",
"oX c #B1C0DE",
"OX c #BCC0CB",
"+X c #CEC1C3",
"@X c #D2C2C2",
"#X c #DACCCD",
"$X c #DECFD0",
"%X c #DFD1D2",
"&X c #E2D3D5",
"*X c #E6D6D8",
"=X c #EEDEDF",
"-X c #EDDCDD",
";X c #F0DFDF",
":X c #EFDEE0",
">X c #F0DFE0",
",X c #F2E1E2",
"<X c #F3E2E4",
"1X c #F4E3E4",
"2X c #F7E6E7",
"3X c #F4E3E4",
"4X c #F8E7E8",
"5X c #F8E7E8",
"6X c #F9E8E9",
"7X c #FAE9EA",
"8X c #FAE9EA",
"9X c #F8E7E8",
/* pixels */
"6X6X6X6X6X6X6X6X6X6X6X6X6X6X6X6X6X6X6X6X6X6X6X6X6X6X6X6X6X6X6X6X",
"6X6X6X6X6X6X6X6X6X6X6X6X6X6X6X6X6X6X6X6X6X6X6X6X6X6X6X6X6X6X6X6X",
"6X6X6X6X6X6X6X6X6X6X6X6X6X6X6X6X6X6X6X6X6X6X6X6X6X6X6X6X6X6X6X6X",
"6X6X6X6X6X6X4X2X1X1X<X<X<X<X<X1X1X1X1X1X<X1X2X4X6X6X6X6X6X6X6X6X",
"6X6X6X6X6X2X=X*X$X#X#X#X#X#X#X#X#X#X#X#X#X%X*X,X4X6X6X6X6X6X6X6X",
"6X6X6X6X2X=X#XU.A.S.S.S.A.A.A.A.A.A.A.A.A.L._.*X,X4X6X6X6X6X6X6X",
"6X6X6X2X=X#XJ.q 3 : : : 3 4 4 4 4 4 4 4 4 6 ' P.&X,X4X6X6X6X6X6X",
"6X6X2X:X#XL.0 < 2 = & = l l k k k k k b b m 1 ( P.&X,X4X6X6X6X6X",
"6X2X=X#XJ.Q n N v x z z c v v C C C C C C v k < e L.&X,X4X6X6X6X",
"2X=X$XL.Q n N Z Z Z V c x x c c V V V V V V c l , 0 L.&X,X4X6X6X",
"=X#XL.Q n N c M D D D Z c z d d z x x x x x x z a , 0 L.&X,X9X6X",
"#XL.Q n v c M G R T I S Z x z d d d d d f f f f z a , 0 L.&X,X4X",
"A.! n v c M F T 1.7.<.W S Z x z d d d d d d d d d d a - 0 P.*X<X",
"6 n c c M F T 6.p.a.s.8.W S Z z s p p p p p p p p p p = > ' XX-X",
"< b c j F T 6.p.d.d.d.s.8.I S c s i i i i i i i i i i % * q P.*X",
"< m M F T 6.e.a.f.d.d.d.s.<.I M a % % % % % % % % % % & * ) ).*X",
") 5 A T 6.t.y.c.x.c.f.f.d.e.[ G g g g g g g g g g g h * 3 S.#X>X",
"(.*.J 1.t.y.z.b.G.b.z.c.f.e.1.R E P P P L L L P P L A 6 B.+X=X2X",
"#X^. .4.y.z.;.=.m.%.;.k.y.t.2.[ } 3.w.X.X.X.X.X.w.,.| *.).&X2X6X",
"&X_.&.r.z.>.$.u t y $.>.k.u.7.1.2.r.n.W.K.K.K.W.n.r...Q._.*X2X6X",
"&X_.&.q.b.D.u 7 # 7 u =.v.r.7.2.4.k.~.(.[.[.[.T.!.j.q.~.@X*X2X6X",
"&X_.&.o.G.B.t # o # r #.F.h.7.2.0.v./.OXoX.X}.|.Y.v.o.Q.@X*X2X6X",
"&X`.&.o.G.N.8 O . @ 8 #.H.h.7.2.0.v.Y.|..X X.X}.U.>.o.Q.@X*X2X6X",
"$X(.:.O.F.N.8 O . O 8 #.F.h.2.1.0.j.!.[.}.].}.[.Y.v.X.Q.'.*X2X6X",
"#X^.{  .-.m.8 + . O 9 #.-.g.,.[ 3.h.W.Y.T.R.R.U.W.l...E._.*X2X6X",
"#XI./ +.-.m.8 o   + 9 #.-.o.] ] } 0.j.b.W.G.W.W.j.9.| Z._.&X2X6X",
"#XP./ / =.C.9 o   o 9 ` =. .U Y ] ,.3.9.q.q.q.9.0.} U Z._.&X2X6X",
"%X(._ / @.` 7 X   o 7 y @./ K H H Y U U U U U U U Y J Z.XX*X2X6X",
"*X+XJ.$.$.' w ; $ ; w ` $._ ~ ~ ~ ^ / ^ ^ ^ ^ ^ ^ / @.(.#X-X4X6X",
"=X&X@X_._.).L.V.M.S.L.(._.).(.(.(.(.(.(.(.(.(.(.(.(._.#X*X<X4X6X",
"2X,X*X&X&X&X$X#X#X#X$X&X&X&X&X&X&X&X&X&X&X&X&X&X&X&X&X-X1X4X6X6X",
"6X9X1X>X=X=X>X,X,X,X>X>X=X=X=X=X>X,X>X>X>X,X>X=X=X;X,X2X4X6X6X6X"
};
