/* XPM */
static char *f52c01d6181940389ef63bbcfdb553b9[] = {
/* columns rows colors chars-per-pixel */
"32 32 201 2 ",
"   c #0E0E0E",
".  c #171718",
"X  c #142617",
"o  c #201F20",
"O  c #1C2F21",
"+  c #232224",
"@  c #262529",
"#  c #2A292C",
"$  c #2F2E31",
"%  c #363639",
"&  c #7E110E",
"*  c #721812",
"=  c #503415",
"-  c #5B351B",
";  c #682816",
":  c #712C1B",
">  c #63381F",
",  c #6A3C23",
"<  c #7A3725",
"1  c #0D5615",
"2  c #125B1A",
"3  c #394916",
"4  c #265C17",
"5  c #2B5E19",
"6  c #375719",
"7  c #1E6E19",
"8  c #187918",
"9  c #266518",
"0  c #296D19",
"q  c #396B1C",
"w  c #2A741B",
"e  c #25781B",
"r  c #2C791D",
"t  c #32731E",
"y  c #3B731E",
"u  c #394B3D",
"i  c #1F6827",
"p  c #3D6321",
"a  c #377626",
"s  c #2D7533",
"d  c #377931",
"f  c #4A471A",
"g  c #48531B",
"h  c #6D4B1E",
"j  c #42681E",
"k  c #43701E",
"l  c #525022",
"z  c #674526",
"x  c #734B2B",
"c  c #456923",
"v  c #4A6825",
"b  c #5A6721",
"n  c #4D7525",
"m  c #507225",
"M  c #686824",
"N  c #756626",
"B  c #7D6925",
"V  c #747A2A",
"C  c #706E31",
"Z  c #4B4A4C",
"A  c #565657",
"S  c #5B5B5C",
"D  c #5C6A58",
"F  c #717453",
"G  c #605F62",
"H  c #6D6C6A",
"J  c #74706C",
"K  c #81120E",
"L  c #840F11",
"P  c #8A1212",
"I  c #861917",
"U  c #931415",
"Y  c #941618",
"T  c #9A1719",
"R  c #961819",
"E  c #9C1A1B",
"W  c #A11E1F",
"Q  c #892D18",
"!  c #90221E",
"~  c #9C261C",
"^  c #8E3116",
"/  c #8E3718",
"(  c #9A351C",
")  c #9F1E20",
"_  c #A01F20",
"`  c #8C2322",
"'  c #9E2523",
"]  c #962926",
"[  c #992929",
"{  c #843429",
"}  c #94342A",
"|  c #A42223",
" . c #A52B22",
".. c #A52728",
"X. c #A82628",
"o. c #A73622",
"O. c #9B5825",
"+. c #AA4825",
"@. c #B24829",
"#. c #A85623",
"$. c #9A6C25",
"%. c #946F2B",
"&. c #857634",
"*. c #AD6828",
"=. c #AE692D",
"-. c #BB662F",
";. c #B16B2C",
":. c #AA792B",
">. c #B5772C",
",. c #AF7D33",
"<. c #B17D31",
"1. c #BF7C30",
"2. c #C17C2F",
"3. c #C36D34",
"4. c #C17A31",
"5. c #977644",
"6. c #0C8515",
"7. c #0C8D16",
"8. c #0E8919",
"9. c #138C17",
"0. c #158618",
"q. c #1C851B",
"w. c #128D18",
"e. c #1D8B1A",
"r. c #0A9416",
"t. c #069C16",
"y. c #0A9B16",
"u. c #119217",
"i. c #21841C",
"p. c #05A415",
"a. c #7A812E",
"s. c #8F813B",
"d. c #958337",
"f. c #B9832C",
"g. c #B68535",
"h. c #C48C35",
"j. c #C68A39",
"k. c #D58E3E",
"l. c #CE9437",
"z. c #CC9339",
"x. c #D3953B",
"c. c #D4993C",
"v. c #D8993C",
"b. c #A98448",
"n. c #B58E49",
"m. c #BD944A",
"M. c #B48D50",
"N. c #BE9559",
"B. c #98846B",
"V. c #8C867C",
"C. c #948B7B",
"Z. c #AA977B",
"A. c #B59C7A",
"S. c #B6A17B",
"D. c #B9A17A",
"F. c #C78F42",
"G. c #C99547",
"H. c #CC9A4C",
"J. c #DA9640",
"K. c #D29B42",
"L. c #C39957",
"P. c #C99A51",
"I. c #D8A44A",
"U. c #C7A158",
"Y. c #D5A556",
"T. c #DFB05F",
"R. c #E5A946",
"E. c #E6A948",
"W. c #E6AA48",
"Q. c #EDB14C",
"!. c #E3AF56",
"~. c #E8B255",
"^. c #CCA361",
"/. c #CBA76C",
"(. c #D7AC64",
"). c #D5AD69",
"_. c #C8A977",
"`. c #938D83",
"'. c #999287",
"]. c #99948E",
"[. c #A49884",
"{. c #B7A381",
"}. c #BCA683",
"|. c #BDAD92",
" X c #BBB2A8",
".X c #AFB2BA",
"XX c #B5B5B8",
"oX c #C3AB85",
"OX c #C3AD8A",
"+X c #CBB58E",
"@X c #C4B397",
"#X c #C2B6A4",
"$X c #C1BCB4",
"%X c #9AAFDA",
"&X c #AFB5C8",
"*X c #B5BBC7",
"=X c #A6B5D7",
"-X c #99B4E9",
";X c #A6BBE6",
":X c #BAC2D4",
">X c #B0C2E3",
/* pixels */
"p.p.p.p.p.p.p.p.p.p.p.p.p.p.p.p.p.p.p.p.p.p.p.p.p.p.p.p.p.p.p.p.",
"p.p.p.p.p.p.p.p.p.p.p.p.p.p.p.p.p.p.p.p.p.p.p.p.p.p.p.p.p.p.p.p.",
"p.p.p.p.p.p.p.p.p.p.p.p.p.p.p.p.p.p.p.p.p.p.p.p.p.p.p.p.p.p.p.p.",
"p.p.p.p.p.p.p.p.p.p.t.t.t.t.t.p.p.p.p.p.t.p.p.p.p.p.p.p.p.p.p.p.",
"p.p.p.p.p.p.y.7.6.6.6.6.6.6.6.6.6.6.6.6.6.8.r.t.p.p.p.p.p.p.p.p.",
"p.p.p.p.p.y.0.7 9 4 4 4 5 5 5 5 5 5 5 5 5 9 8 w.y.p.p.p.p.p.p.p.",
"p.p.p.p.y.q.p l - - = - > , , , , , , , , z l t w.t.p.p.p.p.p.p.",
"p.p.p.y.i.c z { ` I I I ` ] [ [ [ [ [ [ [ ] < l w w.y.p.p.p.p.p.",
"p.p.y.q.c x } ..| E E E ' | ..X.X.X.X.X.X.X.] < f 0 9.t.p.p.p.p.",
"p.y.i.c x } .. . . .| | _ ) | | | | | | | | _ ! : f 0 9.t.p.p.p.",
"y.q.c x } ' ~ ( +.+.o. .W E R R R T E E E E T R I : f 0 w.t.p.p.",
"i.c x } ' ~ ( #.>.4.-.@. .E T Y Y T R T T T T E R I : f 0 9.t.p.",
"v x }  .~ ( #.2.v.J.x.3.@. .E R Y Y T T R R R R T T I : f 0 7.t.",
"x } ' ~ ( #.2.v.R.Q.E.J.3.@. .E Y P P U U U U U U U U I ; 6 8 r.",
"{ ] ~ ( #.2.v.R.Q.Q.Q.E.J.3.+.~ U L L P P P P P P P P L * f 7 r.",
", Q ( #.2.v.R.Q.Q.Q.Q.Q.E.k.-.( I & & K K K K K K K K * ; 3 8 r.",
"g h O.1.v.E.!.T.(.(.~.Q.Q.R.j.#./ ^ ^ ^ ^ ^ ^ ^ ^ ^ Q ; = 4 9.y.",
"w b %.c.R.!.)._.oX_.).!.Q.R.z.>.*.;.;.;.=.=.=.;.;.*.O.h 6 8 y.p.",
"q.m d.I.!.).S.[.`.'.D.).!.I.c.h.h.F.G.L.N.N.N.L.G.F.g.V w 7.p.p.",
"e.n d.I.).D.C.J G H C.D.).I.c.l.K.Y./.oX|.|.|.OX/.Y.m.a.r 7.p.p.",
"e.n d.U._.[.J Z % Z J Z._.Y.K.x.K.).+X$X*X*X*XXX@X/.G.a.r 7.p.p.",
"e.n s.U.oX].S $ o % G `.}.^.K.x.H./.#X:X>X;X;X*X X_.m.a.r 7.p.p.",
"e.n s.L.oX].S # . $ S V.}.^.K.x.H._.#X:X;X-X;X=X X_.m.a.r 7.p.p.",
"e.n &.N.}.].S # . # S V.}.^.c.l.H./.@X*X=X%X=X&X X_.m.V r 7.p.p.",
"e.c &.M.D.'.A @ . # S V.{.L.z.h.F.^.oX XXX.XXX XOX^.n.V w 7.p.p.",
"e.j B b.A.'.A +   @ A V.S.N.g.f.h.H./._.oXOXOXoX/.P.g.V w 7.p.p.",
"0.j N b.Z.`.A +   + A V.Z.M.<.:.f.j.G.H.P.P.P.H.H.j.:.M w 7.p.p.",
"9.q M 5.B.J Z .   + Z J B.5.$.$.$.:.<.<.,.,.,.<.<.:.%.b e r.p.p.",
"u.w v C F D u X X O u D F C N N N B B B B B B B B N M k q.r.p.p.",
"y.9.e a d s i 2 1 2 i s d a y y y y y y y y y y y y t i.u.t.p.p.",
"p.y.r.8.8.8.8.6.6.6.8.8.8.8.8.8.8.8.8.8.8.8.8.8.8.8.7.r.t.p.p.p.",
"p.p.t.y.y.y.y.t.t.t.y.y.y.y.y.y.y.y.y.y.y.y.y.y.y.y.t.t.p.p.p.p."
};
