/* XPM */
static char *eb816b572d4241f5ea36f95591c892ac357a4S5LmhESag2x[] = {
/* columns rows colors chars-per-pixel */
"32 32 222 2 ",
"   c #08A11C",
".  c #07A01B",
"X  c #07A11C",
"o  c #0BA21D",
"O  c #1BA924",
"+  c #12A520",
"@  c #09A11C",
"#  c #07A11B",
"$  c #1DAA25",
"%  c #1FAB26",
"&  c #1CAA25",
"*  c #0AA21D",
"=  c #19A824",
"-  c #7DD24E",
";  c #52BF35",
":  c #17A721",
">  c #1BAA24",
",  c #19A724",
"<  c #88D156",
"1  c #ABE564",
"2  c #90DB57",
"3  c #21AC26",
"4  c #23AB27",
"5  c #4CB533",
"6  c #48B930",
"7  c #11A51F",
"8  c #52BE36",
"9  c #7DCC50",
"0  c #1AA724",
"q  c #0B9B1E",
"w  c #348A37",
"e  c #96CF5C",
"r  c #6FCA41",
"t  c #4ABB30",
"y  c #11A41E",
"u  c #22AC26",
"i  c #8FD956",
"p  c #88D055",
"a  c #089A1D",
"s  c #1E812B",
"d  c #40B02F",
"f  c #18A821",
"g  c #3FB72D",
"h  c #4AB432",
"j  c #288530",
"k  c #0B9C1F",
"l  c #08A01C",
"z  c #0B9520",
"x  c #278430",
"c  c #4AB532",
"v  c #47BA2F",
"b  c #18A721",
"n  c #41B82E",
"m  c #55B938",
"M  c #2A8631",
"N  c #0A9B1E",
"B  c #11A31F",
"V  c #13A61F",
"C  c #19A821",
"Z  c #099A1D",
"A  c #099B1E",
"S  c #11A41F",
"D  c #10A31F",
"F  c #0FA31E",
"G  c #42B130",
"H  c #53BE36",
"J  c #24AD27",
"K  c #278530",
"L  c #90D358",
"P  c #87D754",
"I  c #19A823",
"U  c #0B9B1F",
"Y  c #1DA925",
"T  c #12A51F",
"R  c #23AC27",
"E  c #7CD24E",
"W  c #88D854",
"Q  c #A1E25E",
"!  c #53BF36",
"~  c #17A720",
"^  c #09A21C",
"/  c #4CBC31",
"(  c #5AC238",
")  c #14A620",
"_  c #0AA11D",
"`  c #30AA2F",
"'  c #93D45A",
"]  c #65C63B",
"[  c #48BA30",
"{  c #59C035",
"}  c #48B331",
"|  c #119D20",
" . c #1AA824",
".. c #089B1D",
"X. c #0F7328",
"o. c #287733",
"O. c #4DAE35",
"+. c #4FBC32",
"@. c #1DA324",
"#. c #4CAD34",
"$. c #1F722E",
"%. c #7CD34E",
"&. c #1EAA25",
"*. c #1BA925",
"=. c #0A931F",
"-. c #0F6C29",
";. c #1F792D",
":. c #42A332",
">. c #207A2D",
",. c #4ABA31",
"<. c #53B837",
"1. c #2DAF2A",
"2. c #8ED956",
"3. c #099A1E",
"4. c #0B9420",
"5. c #16752A",
"6. c #12682C",
"7. c #24832D",
"8. c #43B230",
"9. c #07A01C",
"0. c #08991E",
"q. c #09991E",
"w. c #7ED34F",
"e. c #2DB12C",
"r. c #09A11D",
"t. c #13A520",
"y. c #64C63D",
"u. c #87D652",
"i. c #21AB26",
"p. c #88D752",
"a. c #51BF33",
"s. c #5AC138",
"d. c #49BA31",
"f. c #63C63A",
"g. c #49BB30",
"h. c #10A41E",
"j. c #119D21",
"k. c #49B432",
"l. c #4FB433",
"z. c #217C2D",
"x. c #50B534",
"c. c #19A023",
"v. c #09A01C",
"b. c #1CA925",
"n. c #1F732E",
"m. c #43A233",
"M. c #287D30",
"N. c #0E7328",
"B. c #099B1D",
"V. c #2EB12D",
"C. c #9CE05D",
"Z. c #AEE865",
"A. c #2DB12D",
"S. c #9ADF5C",
"D. c #1E772D",
"F. c #3D9C31",
"G. c #C1F06D",
"H. c #B7EB68",
"J. c #90DA57",
"K. c #16A720",
"L. c #54C036",
"P. c #ADE763",
"I. c #C1F06E",
"U. c #0B9320",
"Y. c #157C29",
"T. c #079A1D",
"R. c #1CA825",
"E. c #31AB30",
"W. c #71CB42",
"Q. c #5BC138",
"!. c #47B930",
"~. c #59C135",
"^. c #67C040",
"/. c #92D459",
"(. c #30B12E",
"). c #4DAE34",
"_. c #227C2E",
"`. c #4BAE34",
"'. c #21732F",
"]. c #207A2F",
"[. c #0A9C1E",
"{. c #06A11B",
"}. c #09A21D",
"|. c #2EB22D",
" X c #1E7A2D",
".X c #41A930",
"XX c #207C2D",
"oX c #40A930",
"OX c #1E792C",
"+X c #0E6C29",
"@X c #08931F",
"#X c #86D754",
"$X c #C1EF6D",
"%X c #AFE167",
"&X c #88CF56",
"*X c #0A9A1E",
"=X c #10A11F",
"-X c #0D9620",
";X c #19A522",
":X c #159F22",
">X c #1BA226",
",X c #94CE5B",
"<X c #377D3B",
"1X c #227B30",
"2X c #0C9C1F",
"3X c #08A21C",
"4X c #147C28",
"5X c #40AA30",
"6X c #87D752",
"7X c #207B2D",
"8X c #47B231",
"9X c #277D32",
"0X c #106D2A",
"qX c #1E802B",
"wX c #4BB532",
"eX c #64C73D",
"rX c #09931F",
"tX c #1F7A2D",
"yX c #41A931",
"uX c #18782B",
"iX c #10A21F",
"pX c white",
/* pixels */
"                                      . X                       ",
"      . . .                         o O + @     X #             ",
"    o $ % & *     . .             X = - ; : @ @ + > o           ",
"  X , < 1 2 3   * $ $ o             * 4 5 6 7 : 8 9 0 #         ",
"    q w e r t y u i p , #             a s d f g h j k           ",
"    l z x c v b n m M k               l N B V C B Z l           ",
"      l A B S * 7 D Z l                 X F G H J *             ",
"          X X   X X #                     A K L P I X           ",
"      . . X       * = o                   l U Y $ o             ",
"    o $ $ T @     R E O #                     # .               ",
"  X I W Q ! ~ ^ b / ( ) X                         X             ",
"    _ ` ' ] v C [ { } | l               # X     *  .o . .       ",
"    ..X.o.O.+.@.+.#.$.X.A             o > + @   R %.&.*.$ o     ",
"    l =.-.;.:.>.:.;.-.=.l           # 0 9 8 : 7 ,.<.1.2.p , X   ",
"      l 3.4.5.6.5.4.3.l               k j h g f d 7.8.m M k     ",
"          9.0.q.q.l #                 l 3.B 7 * F q B D Z l     ",
"        o = *     * = o                   X X       X X         ",
"      # O w.e.* r.e.w.O #                                       ",
"      X t.y.u.O i.p.y.t.X                                       ",
"      X T a.s.@.d.f.g.h.X             . . .         . . .       ",
"      l j.k.l.z.x.h c.v.            * *.% *.*     * b.% *.*     ",
"      A X.n.m.M.m.n.N.B.          * V.C.Z.C.A.* X R S.Z.C.V.*   ",
"      l =.-.D.F.D.-.=.l         X I P Z.G.H.J.O K.L.P.I.Z.P I . ",
"    . # 9.3.U.Y.U.T.. #           o R.E.' W.Q.@.!.~.^./.(.b.o   ",
"  * *.% b.* l a _ > % *.*           T.X.o.).l._.x.`.'.].[.{.    ",
"* V.C.Z.S.R X }.A.C.Z.C.|.*         l =.-. X.XXXoXOX+X@Xl       ",
"O #XZ.I.P.L.K.O J.H.$X%X&X, #         l 3.*X=X-X;X:X>X_         ",
"o *.(./.^.~.!.@.Q.W.,X<X1X2X              3Xa 4X5X( 6Xe.*       ",
"  {.[.].'.`.x.7X8Xc 9X0X@Xl                 l 4.qXwXeXw.= X     ",
"    l rX-.tXyXuX| S q.3.l                     l N D t.O o       ",
"      l 3.*XiXN l X                               X X #         ",
"        3X  X                                                   "
};
